<svg xmlns="http://www.w3.org/2000/svg" xmlns:xlink="http://www.w3.org/1999/xlink" width="500" zoomAndPan="magnify" viewBox="0 0 375 374.999991" height="500" preserveAspectRatio="xMidYMid meet" version="1.0"><defs><g/><clipPath id="a17352d6f6"><path d="M 104.78125 74.457031 L 173 74.457031 L 173 264 L 104.78125 264 Z M 104.78125 74.457031 " clip-rule="nonzero"/></clipPath><clipPath id="d8fa826618"><path d="M 181 111 L 249 111 L 249 300.207031 L 181 300.207031 Z M 181 111 " clip-rule="nonzero"/></clipPath></defs><rect x="-37.5" width="450" fill="#ffffff" y="-37.499999" height="449.999989" fill-opacity="1"/><rect x="-37.5" width="450" fill="#ffffff" y="-37.499999" height="449.999989" fill-opacity="1"/><rect x="-37.5" width="450" fill="#545454" y="-37.499999" height="449.999989" fill-opacity="1"/><g clip-path="url(#a17352d6f6)"><path fill="#ffffff" d="M 104.835938 180.703125 L 104.835938 157.113281 C 109.621094 156.855469 113.226562 156.132812 115.648438 154.953125 C 118.074219 153.773438 120.171875 151.792969 121.941406 149.007812 C 123.714844 146.222656 124.925781 142.734375 125.582031 138.539062 C 126.101562 135.394531 126.367188 129.925781 126.367188 122.125 C 126.367188 109.417969 126.957031 100.554688 128.136719 95.542969 C 129.316406 90.53125 131.445312 86.5 134.527344 83.453125 C 137.605469 80.40625 142.097656 78 147.996094 76.230469 C 151.992188 75.050781 158.285156 74.460938 166.871094 74.460938 L 172.082031 74.460938 L 172.082031 97.953125 C 164.808594 97.953125 160.136719 98.363281 158.074219 99.179688 C 156.007812 100 154.484375 101.242188 153.5 102.914062 C 152.515625 104.582031 152.027344 107.449219 152.027344 111.511719 C 152.027344 115.640625 151.730469 123.46875 151.140625 135 C 150.8125 141.488281 149.960938 146.746094 148.585938 150.773438 C 147.207031 154.804688 145.453125 158.128906 143.324219 160.75 C 141.195312 163.371094 137.933594 166.089844 133.542969 168.910156 C 137.410156 171.136719 140.574219 173.742188 143.03125 176.722656 C 145.488281 179.703125 147.371094 183.320312 148.683594 187.582031 C 149.996094 191.839844 150.847656 197.539062 151.238281 204.679688 C 151.699219 215.558594 151.925781 222.503906 151.925781 225.515625 C 151.925781 229.839844 152.453125 232.851562 153.5 234.558594 C 154.546875 236.261719 156.136719 237.554688 158.269531 238.441406 C 160.398438 239.324219 165.003906 239.765625 172.082031 239.765625 L 172.082031 263.351562 L 166.871094 263.351562 C 158.023438 263.351562 151.238281 262.648438 146.519531 261.242188 C 141.800781 259.832031 137.820312 257.488281 134.574219 254.214844 C 131.332031 250.9375 129.152344 246.890625 128.039062 242.074219 C 126.921875 237.261719 126.367188 229.675781 126.367188 219.324219 C 126.367188 207.269531 125.839844 199.441406 124.792969 195.835938 C 123.351562 190.59375 121.171875 186.84375 118.253906 184.582031 C 115.339844 182.324219 110.863281 181.03125 104.835938 180.703125 " fill-opacity="1" fill-rule="nonzero"/></g><path fill="#00bf63" d="M 253.988281 123.394531 L 238.597656 123.394531 L 238.597656 108.011719 L 253.988281 108.011719 L 253.988281 123.394531 " fill-opacity="1" fill-rule="nonzero"/><path fill="#00bf63" d="M 250.355469 154.15625 L 238.597656 154.15625 L 238.597656 142.40625 L 250.355469 142.40625 L 250.355469 154.15625 " fill-opacity="1" fill-rule="nonzero"/><g clip-path="url(#d8fa826618)"><path fill="#00bf63" d="M 205.589844 135.148438 L 205.589844 123.394531 L 217.34375 123.394531 L 217.34375 135.148438 Z M 235.492188 190.09375 C 232.542969 187.832031 230.347656 184.082031 228.90625 178.839844 C 228.113281 175.882812 227.640625 170.21875 227.488281 161.847656 L 217.34375 161.847656 L 217.34375 146.464844 L 227.265625 146.464844 C 227.019531 140.535156 226.5 135.914062 225.710938 132.601562 C 224.5625 127.785156 222.382812 123.722656 219.175781 120.414062 C 215.960938 117.109375 211.996094 114.761719 207.277344 113.386719 C 202.558594 112.011719 195.777344 111.324219 186.925781 111.324219 L 181.71875 111.324219 L 181.71875 134.8125 C 189.121094 134.8125 193.890625 135.253906 196.019531 136.136719 C 198.152344 137.023438 199.625 138.285156 200.445312 139.921875 C 201.265625 141.5625 201.707031 144.835938 201.773438 149.75 C 202.101562 165.34375 202.625 175.433594 203.34375 180.019531 C 204.457031 186.703125 206.554688 192.207031 209.636719 196.53125 C 211.863281 199.546875 215.402344 202.625 220.253906 205.769531 C 216.519531 207.929688 213.453125 210.4375 211.0625 213.289062 C 208.667969 216.136719 206.753906 219.609375 205.3125 223.703125 C 203.871094 227.800781 202.984375 233.253906 202.65625 240.066406 C 202.132812 251.339844 201.855469 258.96875 201.824219 262.964844 C 201.789062 266.960938 201.265625 269.796875 200.25 271.46875 C 199.230469 273.140625 197.644531 274.417969 195.480469 275.300781 C 193.316406 276.1875 188.726562 276.628906 181.71875 276.628906 L 181.71875 300.214844 L 186.925781 300.214844 C 195.511719 300.214844 201.804688 299.625 205.800781 298.445312 C 211.765625 296.675781 216.289062 294.269531 219.371094 291.222656 C 222.449219 288.175781 224.5625 284.128906 225.710938 279.085938 C 226.859375 274.039062 227.433594 265.160156 227.433594 252.449219 C 227.433594 244.722656 227.695312 239.28125 228.21875 236.136719 C 228.9375 231.945312 230.167969 228.457031 231.90625 225.671875 C 233.640625 222.886719 235.722656 220.902344 238.148438 219.726562 C 240.570312 218.542969 244.179688 217.824219 248.960938 217.5625 L 248.960938 193.976562 C 242.929688 193.648438 238.441406 192.351562 235.492188 190.09375 " fill-opacity="1" fill-rule="nonzero"/></g><path fill="#00bf63" d="M 283.988281 93.519531 L 272.230469 93.519531 L 272.230469 81.765625 L 283.988281 81.765625 L 283.988281 93.519531 " fill-opacity="1" fill-rule="nonzero"/><path fill="#00bf63" d="M 225.039062 108.011719 L 203.09375 108.011719 L 203.09375 86.074219 L 225.039062 86.074219 L 225.039062 108.011719 " fill-opacity="1" fill-rule="nonzero"/><path stroke-linecap="butt" transform="matrix(2.737716, 0, 0, 2.737716, 5.034062, 81.657878)" fill="none" stroke-linejoin="miter" d="M 24.889992 50.999954 L 16.142108 37.988707 L 11.740343 42.854192 L 11.740343 50.999954 L 3.316349 50.999954 L 3.316349 17.871856 L 11.740343 17.871856 L 11.740343 32.21148 L 24.427699 17.871856 L 34.168656 17.871856 L 21.862262 31.59937 L 34.977667 50.999954 Z M 24.889992 50.999954 " stroke="#00bf63" stroke-width="1.774901" stroke-opacity="1" stroke-miterlimit="4"/><path stroke-linecap="butt" transform="matrix(2.737716, 0, 0, 2.737716, 256.601354, 116.440848)" fill="none" stroke-linejoin="miter" d="M 14.829102 50.56557 C 12.210872 50.56557 9.675398 50.211717 7.225534 49.502583 C 4.784231 48.794876 2.823769 47.870291 1.344148 46.730256 L 3.943829 40.964443 C 5.362097 42.003174 7.048608 42.839295 9.006216 43.47138 C 10.962397 44.103465 12.918579 44.418794 14.876187 44.418794 C 17.054954 44.418794 18.665843 44.094904 19.706001 43.448551 C 20.746159 42.800771 21.265524 41.938966 21.265524 40.860284 C 21.265524 40.074102 20.957329 39.423468 20.34094 38.906956 C 19.72455 38.383311 18.935514 37.963823 17.972405 37.647067 C 17.01643 37.331738 15.719443 36.985019 14.07859 36.606909 C 11.551678 36.006215 9.482777 35.40552 7.873314 34.804825 C 6.262425 34.204131 4.879829 33.241022 3.725525 31.915498 C 2.576928 30.591401 2.003343 28.826415 2.003343 26.623392 C 2.003343 24.698601 2.522708 22.95359 3.562866 21.389786 C 4.603024 19.825982 6.171108 18.588922 8.265692 17.680033 C 10.368837 16.764009 12.934274 16.30457 15.962004 16.30457 C 18.080844 16.30457 20.148318 16.559973 22.16728 17.067923 C 24.184815 17.56874 25.952655 18.292142 27.4708 19.239556 L 25.102265 25.052454 C 22.043146 23.318858 18.981172 22.452773 15.914918 22.452773 C 13.774676 22.452773 12.186616 22.799492 11.155019 23.492931 C 10.130557 24.18637 9.618325 25.102393 9.618325 26.242429 C 9.618325 27.375331 10.210459 28.218586 11.39758 28.773622 C 12.583274 29.327232 14.389639 29.870853 16.816674 30.40306 C 19.343587 31.003755 21.412488 31.60445 23.02195 32.205144 C 24.631412 32.805839 26.011155 33.753253 27.158325 35.047386 C 28.314056 36.341519 28.891921 38.090811 28.891921 40.293834 C 28.891921 42.188661 28.361141 43.917977 27.296727 45.481781 C 26.242301 47.045585 24.655668 48.285498 22.536828 49.202949 C 20.426549 50.111839 17.856832 50.56557 14.829102 50.56557 Z M 14.829102 50.56557 " stroke="#ffffff" stroke-width="1.774901" stroke-opacity="1" stroke-miterlimit="4"/><g fill="#00bf63" fill-opacity="0.4"><g transform="translate(13.330479, 294.911691)"><g><path d="M 5.40625 -4.40625 L 3.90625 -2.828125 L 3.90625 0 L 1.328125 0 L 1.328125 -11.203125 L 3.90625 -11.203125 L 3.90625 -5.96875 L 8.859375 -11.203125 L 11.75 -11.203125 L 7.109375 -6.203125 L 12.015625 0 L 8.984375 0 Z M 5.40625 -4.40625 "/></g></g></g><g fill="#00bf63" fill-opacity="0.4"><g transform="translate(33.171498, 294.911691)"><g><path d="M 8.46875 0 L 6.296875 -3.125 L 3.921875 -3.125 L 3.921875 0 L 1.328125 0 L 1.328125 -11.203125 L 6.171875 -11.203125 C 7.160156 -11.203125 8.019531 -11.035156 8.75 -10.703125 C 9.488281 -10.367188 10.054688 -9.898438 10.453125 -9.296875 C 10.847656 -8.691406 11.046875 -7.972656 11.046875 -7.140625 C 11.046875 -6.304688 10.84375 -5.585938 10.4375 -4.984375 C 10.039062 -4.378906 9.472656 -3.914062 8.734375 -3.59375 L 11.25 0 Z M 8.421875 -7.140625 C 8.421875 -7.765625 8.21875 -8.242188 7.8125 -8.578125 C 7.40625 -8.921875 6.8125 -9.09375 6.03125 -9.09375 L 3.921875 -9.09375 L 3.921875 -5.1875 L 6.03125 -5.1875 C 6.8125 -5.1875 7.40625 -5.351562 7.8125 -5.6875 C 8.21875 -6.03125 8.421875 -6.515625 8.421875 -7.140625 Z M 8.421875 -7.140625 "/></g></g></g><g fill="#00bf63" fill-opacity="0.4"><g transform="translate(52.932517, 294.911691)"><g><path d="M 10.40625 -2.109375 L 10.40625 0 L 0.609375 0 L 0.609375 -1.6875 L 6.75 -9.09375 L 0.734375 -9.09375 L 0.734375 -11.203125 L 10.15625 -11.203125 L 10.15625 -9.515625 L 4.03125 -2.109375 Z M 10.40625 -2.109375 "/></g></g></g><g fill="#00bf63" fill-opacity="0.4"><g transform="translate(71.66948, 294.911691)"><g><path d="M 6.703125 -3.96875 L 6.703125 0 L 4.109375 0 L 4.109375 -4 L -0.21875 -11.203125 L 2.53125 -11.203125 L 5.515625 -6.21875 L 8.515625 -11.203125 L 11.0625 -11.203125 Z M 6.703125 -3.96875 "/></g></g></g><g fill="#00bf63" fill-opacity="0.4"><g transform="translate(90.486444, 294.911691)"><g><path d="M 5.015625 0.1875 C 4.128906 0.1875 3.269531 0.0664062 2.4375 -0.171875 C 1.613281 -0.410156 0.953125 -0.722656 0.453125 -1.109375 L 1.328125 -3.0625 C 1.804688 -2.707031 2.375 -2.421875 3.03125 -2.203125 C 3.695312 -1.992188 4.363281 -1.890625 5.03125 -1.890625 C 5.757812 -1.890625 6.300781 -2 6.65625 -2.21875 C 7.007812 -2.4375 7.1875 -2.726562 7.1875 -3.09375 C 7.1875 -3.351562 7.082031 -3.570312 6.875 -3.75 C 6.664062 -3.925781 6.394531 -4.066406 6.0625 -4.171875 C 5.738281 -4.285156 5.300781 -4.40625 4.75 -4.53125 C 3.894531 -4.726562 3.195312 -4.925781 2.65625 -5.125 C 2.113281 -5.332031 1.644531 -5.660156 1.25 -6.109375 C 0.863281 -6.554688 0.671875 -7.15625 0.671875 -7.90625 C 0.671875 -8.550781 0.847656 -9.140625 1.203125 -9.671875 C 1.554688 -10.203125 2.085938 -10.617188 2.796875 -10.921875 C 3.503906 -11.234375 4.367188 -11.390625 5.390625 -11.390625 C 6.109375 -11.390625 6.804688 -11.300781 7.484375 -11.125 C 8.171875 -10.957031 8.769531 -10.71875 9.28125 -10.40625 L 8.484375 -8.4375 C 7.441406 -9.019531 6.40625 -9.3125 5.375 -9.3125 C 4.644531 -9.3125 4.109375 -9.191406 3.765625 -8.953125 C 3.421875 -8.722656 3.25 -8.414062 3.25 -8.03125 C 3.25 -7.644531 3.445312 -7.359375 3.84375 -7.171875 C 4.25 -6.984375 4.863281 -6.800781 5.6875 -6.625 C 6.53125 -6.414062 7.222656 -6.210938 7.765625 -6.015625 C 8.316406 -5.816406 8.785156 -5.5 9.171875 -5.0625 C 9.566406 -4.625 9.765625 -4.03125 9.765625 -3.28125 C 9.765625 -2.632812 9.582031 -2.046875 9.21875 -1.515625 C 8.863281 -0.992188 8.328125 -0.578125 7.609375 -0.265625 C 6.898438 0.0351562 6.035156 0.1875 5.015625 0.1875 Z M 5.015625 0.1875 "/></g></g></g><g fill="#00bf63" fill-opacity="0.4"><g transform="translate(108.695368, 294.911691)"><g><path d="M 10.40625 -2.109375 L 10.40625 0 L 0.609375 0 L 0.609375 -1.6875 L 6.75 -9.09375 L 0.734375 -9.09375 L 0.734375 -11.203125 L 10.15625 -11.203125 L 10.15625 -9.515625 L 4.03125 -2.109375 Z M 10.40625 -2.109375 "/></g></g></g><g fill="#00bf63" fill-opacity="0.4"><g transform="translate(127.432331, 294.911691)"><g><path d="M 3.640625 -9.09375 L 0.0625 -9.09375 L 0.0625 -11.203125 L 9.828125 -11.203125 L 9.828125 -9.09375 L 6.234375 -9.09375 L 6.234375 0 L 3.640625 0 Z M 3.640625 -9.09375 "/></g></g></g><g fill="#00bf63" fill-opacity="0.4"><g transform="translate(145.321232, 294.911691)"><g><path d="M 6.75 0.1875 C 5.59375 0.1875 4.546875 -0.0625 3.609375 -0.5625 C 2.671875 -1.0625 1.9375 -1.75 1.40625 -2.625 C 0.882812 -3.507812 0.625 -4.5 0.625 -5.59375 C 0.625 -6.695312 0.882812 -7.6875 1.40625 -8.5625 C 1.9375 -9.445312 2.671875 -10.140625 3.609375 -10.640625 C 4.546875 -11.140625 5.59375 -11.390625 6.75 -11.390625 C 7.914062 -11.390625 8.960938 -11.140625 9.890625 -10.640625 C 10.816406 -10.140625 11.546875 -9.445312 12.078125 -8.5625 C 12.609375 -7.6875 12.875 -6.695312 12.875 -5.59375 C 12.875 -4.5 12.609375 -3.507812 12.078125 -2.625 C 11.546875 -1.75 10.816406 -1.0625 9.890625 -0.5625 C 8.960938 -0.0625 7.914062 0.1875 6.75 0.1875 Z M 6.75 -2.015625 C 7.414062 -2.015625 8.015625 -2.164062 8.546875 -2.46875 C 9.078125 -2.769531 9.492188 -3.191406 9.796875 -3.734375 C 10.097656 -4.285156 10.25 -4.90625 10.25 -5.59375 C 10.25 -6.289062 10.097656 -6.910156 9.796875 -7.453125 C 9.492188 -7.992188 9.078125 -8.414062 8.546875 -8.71875 C 8.015625 -9.03125 7.414062 -9.1875 6.75 -9.1875 C 6.09375 -9.1875 5.492188 -9.03125 4.953125 -8.71875 C 4.421875 -8.414062 4.003906 -7.992188 3.703125 -7.453125 C 3.398438 -6.910156 3.25 -6.289062 3.25 -5.59375 C 3.25 -4.90625 3.398438 -4.285156 3.703125 -3.734375 C 4.003906 -3.191406 4.421875 -2.769531 4.953125 -2.46875 C 5.492188 -2.164062 6.09375 -2.015625 6.75 -2.015625 Z M 6.75 -2.015625 "/></g></g></g><g fill="#00bf63" fill-opacity="0.4"><g transform="translate(166.826331, 294.911691)"><g><path d="M 3.921875 -9.125 L 3.921875 -6.15625 L 9.109375 -6.15625 L 9.109375 -4.078125 L 3.921875 -4.078125 L 3.921875 0 L 1.328125 0 L 1.328125 -11.203125 L 9.796875 -11.203125 L 9.796875 -9.125 Z M 3.921875 -9.125 "/></g></g></g><g fill="#00bf63" fill-opacity="1"><g transform="translate(13.06615, 294.585267)"><g><path d="M 5.40625 -4.40625 L 3.90625 -2.828125 L 3.90625 0 L 1.328125 0 L 1.328125 -11.203125 L 3.90625 -11.203125 L 3.90625 -5.96875 L 8.859375 -11.203125 L 11.75 -11.203125 L 7.109375 -6.203125 L 12.015625 0 L 8.984375 0 Z M 5.40625 -4.40625 "/></g></g></g><g fill="#00bf63" fill-opacity="1"><g transform="translate(32.907169, 294.585267)"><g><path d="M 8.46875 0 L 6.296875 -3.125 L 3.921875 -3.125 L 3.921875 0 L 1.328125 0 L 1.328125 -11.203125 L 6.171875 -11.203125 C 7.160156 -11.203125 8.019531 -11.035156 8.75 -10.703125 C 9.488281 -10.367188 10.054688 -9.898438 10.453125 -9.296875 C 10.847656 -8.691406 11.046875 -7.972656 11.046875 -7.140625 C 11.046875 -6.304688 10.84375 -5.585938 10.4375 -4.984375 C 10.039062 -4.378906 9.472656 -3.914062 8.734375 -3.59375 L 11.25 0 Z M 8.421875 -7.140625 C 8.421875 -7.765625 8.21875 -8.242188 7.8125 -8.578125 C 7.40625 -8.921875 6.8125 -9.09375 6.03125 -9.09375 L 3.921875 -9.09375 L 3.921875 -5.1875 L 6.03125 -5.1875 C 6.8125 -5.1875 7.40625 -5.351562 7.8125 -5.6875 C 8.21875 -6.03125 8.421875 -6.515625 8.421875 -7.140625 Z M 8.421875 -7.140625 "/></g></g></g><g fill="#00bf63" fill-opacity="1"><g transform="translate(52.668188, 294.585267)"><g><path d="M 10.40625 -2.109375 L 10.40625 0 L 0.609375 0 L 0.609375 -1.6875 L 6.75 -9.09375 L 0.734375 -9.09375 L 0.734375 -11.203125 L 10.15625 -11.203125 L 10.15625 -9.515625 L 4.03125 -2.109375 Z M 10.40625 -2.109375 "/></g></g></g><g fill="#00bf63" fill-opacity="1"><g transform="translate(71.405151, 294.585267)"><g><path d="M 6.703125 -3.96875 L 6.703125 0 L 4.109375 0 L 4.109375 -4 L -0.21875 -11.203125 L 2.53125 -11.203125 L 5.515625 -6.21875 L 8.515625 -11.203125 L 11.0625 -11.203125 Z M 6.703125 -3.96875 "/></g></g></g><g fill="#00bf63" fill-opacity="1"><g transform="translate(90.222115, 294.585267)"><g><path d="M 5.015625 0.1875 C 4.128906 0.1875 3.269531 0.0664062 2.4375 -0.171875 C 1.613281 -0.410156 0.953125 -0.722656 0.453125 -1.109375 L 1.328125 -3.0625 C 1.804688 -2.707031 2.375 -2.421875 3.03125 -2.203125 C 3.695312 -1.992188 4.363281 -1.890625 5.03125 -1.890625 C 5.757812 -1.890625 6.300781 -2 6.65625 -2.21875 C 7.007812 -2.4375 7.1875 -2.726562 7.1875 -3.09375 C 7.1875 -3.351562 7.082031 -3.570312 6.875 -3.75 C 6.664062 -3.925781 6.394531 -4.066406 6.0625 -4.171875 C 5.738281 -4.285156 5.300781 -4.40625 4.75 -4.53125 C 3.894531 -4.726562 3.195312 -4.925781 2.65625 -5.125 C 2.113281 -5.332031 1.644531 -5.660156 1.25 -6.109375 C 0.863281 -6.554688 0.671875 -7.15625 0.671875 -7.90625 C 0.671875 -8.550781 0.847656 -9.140625 1.203125 -9.671875 C 1.554688 -10.203125 2.085938 -10.617188 2.796875 -10.921875 C 3.503906 -11.234375 4.367188 -11.390625 5.390625 -11.390625 C 6.109375 -11.390625 6.804688 -11.300781 7.484375 -11.125 C 8.171875 -10.957031 8.769531 -10.71875 9.28125 -10.40625 L 8.484375 -8.4375 C 7.441406 -9.019531 6.40625 -9.3125 5.375 -9.3125 C 4.644531 -9.3125 4.109375 -9.191406 3.765625 -8.953125 C 3.421875 -8.722656 3.25 -8.414062 3.25 -8.03125 C 3.25 -7.644531 3.445312 -7.359375 3.84375 -7.171875 C 4.25 -6.984375 4.863281 -6.800781 5.6875 -6.625 C 6.53125 -6.414062 7.222656 -6.210938 7.765625 -6.015625 C 8.316406 -5.816406 8.785156 -5.5 9.171875 -5.0625 C 9.566406 -4.625 9.765625 -4.03125 9.765625 -3.28125 C 9.765625 -2.632812 9.582031 -2.046875 9.21875 -1.515625 C 8.863281 -0.992188 8.328125 -0.578125 7.609375 -0.265625 C 6.898438 0.0351562 6.035156 0.1875 5.015625 0.1875 Z M 5.015625 0.1875 "/></g></g></g><g fill="#00bf63" fill-opacity="1"><g transform="translate(108.431039, 294.585267)"><g><path d="M 10.40625 -2.109375 L 10.40625 0 L 0.609375 0 L 0.609375 -1.6875 L 6.75 -9.09375 L 0.734375 -9.09375 L 0.734375 -11.203125 L 10.15625 -11.203125 L 10.15625 -9.515625 L 4.03125 -2.109375 Z M 10.40625 -2.109375 "/></g></g></g><g fill="#00bf63" fill-opacity="1"><g transform="translate(127.168002, 294.585267)"><g><path d="M 3.640625 -9.09375 L 0.0625 -9.09375 L 0.0625 -11.203125 L 9.828125 -11.203125 L 9.828125 -9.09375 L 6.234375 -9.09375 L 6.234375 0 L 3.640625 0 Z M 3.640625 -9.09375 "/></g></g></g><g fill="#00bf63" fill-opacity="1"><g transform="translate(145.056903, 294.585267)"><g><path d="M 6.75 0.1875 C 5.59375 0.1875 4.546875 -0.0625 3.609375 -0.5625 C 2.671875 -1.0625 1.9375 -1.75 1.40625 -2.625 C 0.882812 -3.507812 0.625 -4.5 0.625 -5.59375 C 0.625 -6.695312 0.882812 -7.6875 1.40625 -8.5625 C 1.9375 -9.445312 2.671875 -10.140625 3.609375 -10.640625 C 4.546875 -11.140625 5.59375 -11.390625 6.75 -11.390625 C 7.914062 -11.390625 8.960938 -11.140625 9.890625 -10.640625 C 10.816406 -10.140625 11.546875 -9.445312 12.078125 -8.5625 C 12.609375 -7.6875 12.875 -6.695312 12.875 -5.59375 C 12.875 -4.5 12.609375 -3.507812 12.078125 -2.625 C 11.546875 -1.75 10.816406 -1.0625 9.890625 -0.5625 C 8.960938 -0.0625 7.914062 0.1875 6.75 0.1875 Z M 6.75 -2.015625 C 7.414062 -2.015625 8.015625 -2.164062 8.546875 -2.46875 C 9.078125 -2.769531 9.492188 -3.191406 9.796875 -3.734375 C 10.097656 -4.285156 10.25 -4.90625 10.25 -5.59375 C 10.25 -6.289062 10.097656 -6.910156 9.796875 -7.453125 C 9.492188 -7.992188 9.078125 -8.414062 8.546875 -8.71875 C 8.015625 -9.03125 7.414062 -9.1875 6.75 -9.1875 C 6.09375 -9.1875 5.492188 -9.03125 4.953125 -8.71875 C 4.421875 -8.414062 4.003906 -7.992188 3.703125 -7.453125 C 3.398438 -6.910156 3.25 -6.289062 3.25 -5.59375 C 3.25 -4.90625 3.398438 -4.285156 3.703125 -3.734375 C 4.003906 -3.191406 4.421875 -2.769531 4.953125 -2.46875 C 5.492188 -2.164062 6.09375 -2.015625 6.75 -2.015625 Z M 6.75 -2.015625 "/></g></g></g><g fill="#00bf63" fill-opacity="1"><g transform="translate(166.562002, 294.585267)"><g><path d="M 3.921875 -9.125 L 3.921875 -6.15625 L 9.109375 -6.15625 L 9.109375 -4.078125 L 3.921875 -4.078125 L 3.921875 0 L 1.328125 0 L 1.328125 -11.203125 L 9.796875 -11.203125 L 9.796875 -9.125 Z M 3.921875 -9.125 "/></g></g></g><g fill="#00bf63" fill-opacity="0.4"><g transform="translate(186.906399, 294.911631)"><g><path d="M 5.015625 0.1875 C 4.128906 0.1875 3.269531 0.0664062 2.4375 -0.171875 C 1.613281 -0.410156 0.953125 -0.722656 0.453125 -1.109375 L 1.328125 -3.0625 C 1.804688 -2.707031 2.375 -2.421875 3.03125 -2.203125 C 3.695312 -1.992188 4.363281 -1.890625 5.03125 -1.890625 C 5.757812 -1.890625 6.300781 -2 6.65625 -2.21875 C 7.007812 -2.4375 7.1875 -2.726562 7.1875 -3.09375 C 7.1875 -3.351562 7.082031 -3.570312 6.875 -3.75 C 6.664062 -3.925781 6.394531 -4.066406 6.0625 -4.171875 C 5.738281 -4.285156 5.300781 -4.40625 4.75 -4.53125 C 3.894531 -4.726562 3.195312 -4.925781 2.65625 -5.125 C 2.113281 -5.332031 1.644531 -5.660156 1.25 -6.109375 C 0.863281 -6.554688 0.671875 -7.15625 0.671875 -7.90625 C 0.671875 -8.550781 0.847656 -9.140625 1.203125 -9.671875 C 1.554688 -10.203125 2.085938 -10.617188 2.796875 -10.921875 C 3.503906 -11.234375 4.367188 -11.390625 5.390625 -11.390625 C 6.109375 -11.390625 6.804688 -11.300781 7.484375 -11.125 C 8.171875 -10.957031 8.769531 -10.71875 9.28125 -10.40625 L 8.484375 -8.4375 C 7.441406 -9.019531 6.40625 -9.3125 5.375 -9.3125 C 4.644531 -9.3125 4.109375 -9.191406 3.765625 -8.953125 C 3.421875 -8.722656 3.25 -8.414062 3.25 -8.03125 C 3.25 -7.644531 3.445312 -7.359375 3.84375 -7.171875 C 4.25 -6.984375 4.863281 -6.800781 5.6875 -6.625 C 6.53125 -6.414062 7.222656 -6.210938 7.765625 -6.015625 C 8.316406 -5.816406 8.785156 -5.5 9.171875 -5.0625 C 9.566406 -4.625 9.765625 -4.03125 9.765625 -3.28125 C 9.765625 -2.632812 9.582031 -2.046875 9.21875 -1.515625 C 8.863281 -0.992188 8.328125 -0.578125 7.609375 -0.265625 C 6.898438 0.0351562 6.035156 0.1875 5.015625 0.1875 Z M 5.015625 0.1875 "/></g></g></g><g fill="#00bf63" fill-opacity="0.4"><g transform="translate(205.659271, 294.911631)"><g><path d="M 3.640625 -9.09375 L 0.0625 -9.09375 L 0.0625 -11.203125 L 9.828125 -11.203125 L 9.828125 -9.09375 L 6.234375 -9.09375 L 6.234375 0 L 3.640625 0 Z M 3.640625 -9.09375 "/></g></g></g><g fill="#00bf63" fill-opacity="0.4"><g transform="translate(224.092121, 294.911631)"><g><path d="M 8.703125 -2.40625 L 3.5 -2.40625 L 2.515625 0 L -0.140625 0 L 4.84375 -11.203125 L 7.40625 -11.203125 L 12.421875 0 L 9.703125 0 Z M 7.890625 -4.375 L 6.109375 -8.65625 L 4.34375 -4.375 Z M 7.890625 -4.375 "/></g></g></g><g fill="#00bf63" fill-opacity="0.4"><g transform="translate(244.893094, 294.911631)"><g><path d="M 5.015625 0.1875 C 4.128906 0.1875 3.269531 0.0664062 2.4375 -0.171875 C 1.613281 -0.410156 0.953125 -0.722656 0.453125 -1.109375 L 1.328125 -3.0625 C 1.804688 -2.707031 2.375 -2.421875 3.03125 -2.203125 C 3.695312 -1.992188 4.363281 -1.890625 5.03125 -1.890625 C 5.757812 -1.890625 6.300781 -2 6.65625 -2.21875 C 7.007812 -2.4375 7.1875 -2.726562 7.1875 -3.09375 C 7.1875 -3.351562 7.082031 -3.570312 6.875 -3.75 C 6.664062 -3.925781 6.394531 -4.066406 6.0625 -4.171875 C 5.738281 -4.285156 5.300781 -4.40625 4.75 -4.53125 C 3.894531 -4.726562 3.195312 -4.925781 2.65625 -5.125 C 2.113281 -5.332031 1.644531 -5.660156 1.25 -6.109375 C 0.863281 -6.554688 0.671875 -7.15625 0.671875 -7.90625 C 0.671875 -8.550781 0.847656 -9.140625 1.203125 -9.671875 C 1.554688 -10.203125 2.085938 -10.617188 2.796875 -10.921875 C 3.503906 -11.234375 4.367188 -11.390625 5.390625 -11.390625 C 6.109375 -11.390625 6.804688 -11.300781 7.484375 -11.125 C 8.171875 -10.957031 8.769531 -10.71875 9.28125 -10.40625 L 8.484375 -8.4375 C 7.441406 -9.019531 6.40625 -9.3125 5.375 -9.3125 C 4.644531 -9.3125 4.109375 -9.191406 3.765625 -8.953125 C 3.421875 -8.722656 3.25 -8.414062 3.25 -8.03125 C 3.25 -7.644531 3.445312 -7.359375 3.84375 -7.171875 C 4.25 -6.984375 4.863281 -6.800781 5.6875 -6.625 C 6.53125 -6.414062 7.222656 -6.210938 7.765625 -6.015625 C 8.316406 -5.816406 8.785156 -5.5 9.171875 -5.0625 C 9.566406 -4.625 9.765625 -4.03125 9.765625 -3.28125 C 9.765625 -2.632812 9.582031 -2.046875 9.21875 -1.515625 C 8.863281 -0.992188 8.328125 -0.578125 7.609375 -0.265625 C 6.898438 0.0351562 6.035156 0.1875 5.015625 0.1875 Z M 5.015625 0.1875 "/></g></g></g><g fill="#00bf63" fill-opacity="0.4"><g transform="translate(263.645967, 294.911631)"><g><path d="M 10.40625 -2.109375 L 10.40625 0 L 0.609375 0 L 0.609375 -1.6875 L 6.75 -9.09375 L 0.734375 -9.09375 L 0.734375 -11.203125 L 10.15625 -11.203125 L 10.15625 -9.515625 L 4.03125 -2.109375 Z M 10.40625 -2.109375 "/></g></g></g><g fill="#00bf63" fill-opacity="0.4"><g transform="translate(282.926878, 294.911631)"><g><path d="M 10 -2.078125 L 10 0 L 1.328125 0 L 1.328125 -11.203125 L 9.796875 -11.203125 L 9.796875 -9.125 L 3.90625 -9.125 L 3.90625 -6.6875 L 9.109375 -6.6875 L 9.109375 -4.671875 L 3.90625 -4.671875 L 3.90625 -2.078125 Z M 10 -2.078125 "/></g></g></g><g fill="#00bf63" fill-opacity="0.4"><g transform="translate(302.207783, 294.911631)"><g><path d="M 18.25 -11.203125 L 14.59375 0 L 11.8125 0 L 9.34375 -7.578125 L 6.796875 0 L 4.03125 0 L 0.359375 -11.203125 L 3.046875 -11.203125 L 5.5625 -3.328125 L 8.203125 -11.203125 L 10.609375 -11.203125 L 13.171875 -3.265625 L 15.78125 -11.203125 Z M 18.25 -11.203125 "/></g></g></g><g fill="#00bf63" fill-opacity="0.4"><g transform="translate(329.361086, 294.911631)"><g><path d="M 5.015625 0.1875 C 4.128906 0.1875 3.269531 0.0664062 2.4375 -0.171875 C 1.613281 -0.410156 0.953125 -0.722656 0.453125 -1.109375 L 1.328125 -3.0625 C 1.804688 -2.707031 2.375 -2.421875 3.03125 -2.203125 C 3.695312 -1.992188 4.363281 -1.890625 5.03125 -1.890625 C 5.757812 -1.890625 6.300781 -2 6.65625 -2.21875 C 7.007812 -2.4375 7.1875 -2.726562 7.1875 -3.09375 C 7.1875 -3.351562 7.082031 -3.570312 6.875 -3.75 C 6.664062 -3.925781 6.394531 -4.066406 6.0625 -4.171875 C 5.738281 -4.285156 5.300781 -4.40625 4.75 -4.53125 C 3.894531 -4.726562 3.195312 -4.925781 2.65625 -5.125 C 2.113281 -5.332031 1.644531 -5.660156 1.25 -6.109375 C 0.863281 -6.554688 0.671875 -7.15625 0.671875 -7.90625 C 0.671875 -8.550781 0.847656 -9.140625 1.203125 -9.671875 C 1.554688 -10.203125 2.085938 -10.617188 2.796875 -10.921875 C 3.503906 -11.234375 4.367188 -11.390625 5.390625 -11.390625 C 6.109375 -11.390625 6.804688 -11.300781 7.484375 -11.125 C 8.171875 -10.957031 8.769531 -10.71875 9.28125 -10.40625 L 8.484375 -8.4375 C 7.441406 -9.019531 6.40625 -9.3125 5.375 -9.3125 C 4.644531 -9.3125 4.109375 -9.191406 3.765625 -8.953125 C 3.421875 -8.722656 3.25 -8.414062 3.25 -8.03125 C 3.25 -7.644531 3.445312 -7.359375 3.84375 -7.171875 C 4.25 -6.984375 4.863281 -6.800781 5.6875 -6.625 C 6.53125 -6.414062 7.222656 -6.210938 7.765625 -6.015625 C 8.316406 -5.816406 8.785156 -5.5 9.171875 -5.0625 C 9.566406 -4.625 9.765625 -4.03125 9.765625 -3.28125 C 9.765625 -2.632812 9.582031 -2.046875 9.21875 -1.515625 C 8.863281 -0.992188 8.328125 -0.578125 7.609375 -0.265625 C 6.898438 0.0351562 6.035156 0.1875 5.015625 0.1875 Z M 5.015625 0.1875 "/></g></g></g><g fill="#00bf63" fill-opacity="0.4"><g transform="translate(348.113954, 294.911631)"><g><path d="M 5.40625 -4.40625 L 3.90625 -2.828125 L 3.90625 0 L 1.328125 0 L 1.328125 -11.203125 L 3.90625 -11.203125 L 3.90625 -5.96875 L 8.859375 -11.203125 L 11.75 -11.203125 L 7.109375 -6.203125 L 12.015625 0 L 8.984375 0 Z M 5.40625 -4.40625 "/></g></g></g><g fill="#00bf63" fill-opacity="0.4"><g transform="translate(368.498911, 294.911631)"><g><path d="M 1.328125 -11.203125 L 3.921875 -11.203125 L 3.921875 0 L 1.328125 0 Z M 1.328125 -11.203125 "/></g></g></g><g fill="#ffffff" fill-opacity="1"><g transform="translate(186.642073, 294.585207)"><g><path d="M 5.015625 0.1875 C 4.128906 0.1875 3.269531 0.0664062 2.4375 -0.171875 C 1.613281 -0.410156 0.953125 -0.722656 0.453125 -1.109375 L 1.328125 -3.0625 C 1.804688 -2.707031 2.375 -2.421875 3.03125 -2.203125 C 3.695312 -1.992188 4.363281 -1.890625 5.03125 -1.890625 C 5.757812 -1.890625 6.300781 -2 6.65625 -2.21875 C 7.007812 -2.4375 7.1875 -2.726562 7.1875 -3.09375 C 7.1875 -3.351562 7.082031 -3.570312 6.875 -3.75 C 6.664062 -3.925781 6.394531 -4.066406 6.0625 -4.171875 C 5.738281 -4.285156 5.300781 -4.40625 4.75 -4.53125 C 3.894531 -4.726562 3.195312 -4.925781 2.65625 -5.125 C 2.113281 -5.332031 1.644531 -5.660156 1.25 -6.109375 C 0.863281 -6.554688 0.671875 -7.15625 0.671875 -7.90625 C 0.671875 -8.550781 0.847656 -9.140625 1.203125 -9.671875 C 1.554688 -10.203125 2.085938 -10.617188 2.796875 -10.921875 C 3.503906 -11.234375 4.367188 -11.390625 5.390625 -11.390625 C 6.109375 -11.390625 6.804688 -11.300781 7.484375 -11.125 C 8.171875 -10.957031 8.769531 -10.71875 9.28125 -10.40625 L 8.484375 -8.4375 C 7.441406 -9.019531 6.40625 -9.3125 5.375 -9.3125 C 4.644531 -9.3125 4.109375 -9.191406 3.765625 -8.953125 C 3.421875 -8.722656 3.25 -8.414062 3.25 -8.03125 C 3.25 -7.644531 3.445312 -7.359375 3.84375 -7.171875 C 4.25 -6.984375 4.863281 -6.800781 5.6875 -6.625 C 6.53125 -6.414062 7.222656 -6.210938 7.765625 -6.015625 C 8.316406 -5.816406 8.785156 -5.5 9.171875 -5.0625 C 9.566406 -4.625 9.765625 -4.03125 9.765625 -3.28125 C 9.765625 -2.632812 9.582031 -2.046875 9.21875 -1.515625 C 8.863281 -0.992188 8.328125 -0.578125 7.609375 -0.265625 C 6.898438 0.0351562 6.035156 0.1875 5.015625 0.1875 Z M 5.015625 0.1875 "/></g></g></g><g fill="#ffffff" fill-opacity="1"><g transform="translate(205.394944, 294.585207)"><g><path d="M 3.640625 -9.09375 L 0.0625 -9.09375 L 0.0625 -11.203125 L 9.828125 -11.203125 L 9.828125 -9.09375 L 6.234375 -9.09375 L 6.234375 0 L 3.640625 0 Z M 3.640625 -9.09375 "/></g></g></g><g fill="#ffffff" fill-opacity="1"><g transform="translate(223.827795, 294.585207)"><g><path d="M 8.703125 -2.40625 L 3.5 -2.40625 L 2.515625 0 L -0.140625 0 L 4.84375 -11.203125 L 7.40625 -11.203125 L 12.421875 0 L 9.703125 0 Z M 7.890625 -4.375 L 6.109375 -8.65625 L 4.34375 -4.375 Z M 7.890625 -4.375 "/></g></g></g><g fill="#ffffff" fill-opacity="1"><g transform="translate(244.628768, 294.585207)"><g><path d="M 5.015625 0.1875 C 4.128906 0.1875 3.269531 0.0664062 2.4375 -0.171875 C 1.613281 -0.410156 0.953125 -0.722656 0.453125 -1.109375 L 1.328125 -3.0625 C 1.804688 -2.707031 2.375 -2.421875 3.03125 -2.203125 C 3.695312 -1.992188 4.363281 -1.890625 5.03125 -1.890625 C 5.757812 -1.890625 6.300781 -2 6.65625 -2.21875 C 7.007812 -2.4375 7.1875 -2.726562 7.1875 -3.09375 C 7.1875 -3.351562 7.082031 -3.570312 6.875 -3.75 C 6.664062 -3.925781 6.394531 -4.066406 6.0625 -4.171875 C 5.738281 -4.285156 5.300781 -4.40625 4.75 -4.53125 C 3.894531 -4.726562 3.195312 -4.925781 2.65625 -5.125 C 2.113281 -5.332031 1.644531 -5.660156 1.25 -6.109375 C 0.863281 -6.554688 0.671875 -7.15625 0.671875 -7.90625 C 0.671875 -8.550781 0.847656 -9.140625 1.203125 -9.671875 C 1.554688 -10.203125 2.085938 -10.617188 2.796875 -10.921875 C 3.503906 -11.234375 4.367188 -11.390625 5.390625 -11.390625 C 6.109375 -11.390625 6.804688 -11.300781 7.484375 -11.125 C 8.171875 -10.957031 8.769531 -10.71875 9.28125 -10.40625 L 8.484375 -8.4375 C 7.441406 -9.019531 6.40625 -9.3125 5.375 -9.3125 C 4.644531 -9.3125 4.109375 -9.191406 3.765625 -8.953125 C 3.421875 -8.722656 3.25 -8.414062 3.25 -8.03125 C 3.25 -7.644531 3.445312 -7.359375 3.84375 -7.171875 C 4.25 -6.984375 4.863281 -6.800781 5.6875 -6.625 C 6.53125 -6.414062 7.222656 -6.210938 7.765625 -6.015625 C 8.316406 -5.816406 8.785156 -5.5 9.171875 -5.0625 C 9.566406 -4.625 9.765625 -4.03125 9.765625 -3.28125 C 9.765625 -2.632812 9.582031 -2.046875 9.21875 -1.515625 C 8.863281 -0.992188 8.328125 -0.578125 7.609375 -0.265625 C 6.898438 0.0351562 6.035156 0.1875 5.015625 0.1875 Z M 5.015625 0.1875 "/></g></g></g><g fill="#ffffff" fill-opacity="1"><g transform="translate(263.381641, 294.585207)"><g><path d="M 10.40625 -2.109375 L 10.40625 0 L 0.609375 0 L 0.609375 -1.6875 L 6.75 -9.09375 L 0.734375 -9.09375 L 0.734375 -11.203125 L 10.15625 -11.203125 L 10.15625 -9.515625 L 4.03125 -2.109375 Z M 10.40625 -2.109375 "/></g></g></g><g fill="#ffffff" fill-opacity="1"><g transform="translate(282.662551, 294.585207)"><g><path d="M 10 -2.078125 L 10 0 L 1.328125 0 L 1.328125 -11.203125 L 9.796875 -11.203125 L 9.796875 -9.125 L 3.90625 -9.125 L 3.90625 -6.6875 L 9.109375 -6.6875 L 9.109375 -4.671875 L 3.90625 -4.671875 L 3.90625 -2.078125 Z M 10 -2.078125 "/></g></g></g><g fill="#ffffff" fill-opacity="1"><g transform="translate(301.943457, 294.585207)"><g><path d="M 18.25 -11.203125 L 14.59375 0 L 11.8125 0 L 9.34375 -7.578125 L 6.796875 0 L 4.03125 0 L 0.359375 -11.203125 L 3.046875 -11.203125 L 5.5625 -3.328125 L 8.203125 -11.203125 L 10.609375 -11.203125 L 13.171875 -3.265625 L 15.78125 -11.203125 Z M 18.25 -11.203125 "/></g></g></g><g fill="#ffffff" fill-opacity="1"><g transform="translate(329.09676, 294.585207)"><g><path d="M 5.015625 0.1875 C 4.128906 0.1875 3.269531 0.0664062 2.4375 -0.171875 C 1.613281 -0.410156 0.953125 -0.722656 0.453125 -1.109375 L 1.328125 -3.0625 C 1.804688 -2.707031 2.375 -2.421875 3.03125 -2.203125 C 3.695312 -1.992188 4.363281 -1.890625 5.03125 -1.890625 C 5.757812 -1.890625 6.300781 -2 6.65625 -2.21875 C 7.007812 -2.4375 7.1875 -2.726562 7.1875 -3.09375 C 7.1875 -3.351562 7.082031 -3.570312 6.875 -3.75 C 6.664062 -3.925781 6.394531 -4.066406 6.0625 -4.171875 C 5.738281 -4.285156 5.300781 -4.40625 4.75 -4.53125 C 3.894531 -4.726562 3.195312 -4.925781 2.65625 -5.125 C 2.113281 -5.332031 1.644531 -5.660156 1.25 -6.109375 C 0.863281 -6.554688 0.671875 -7.15625 0.671875 -7.90625 C 0.671875 -8.550781 0.847656 -9.140625 1.203125 -9.671875 C 1.554688 -10.203125 2.085938 -10.617188 2.796875 -10.921875 C 3.503906 -11.234375 4.367188 -11.390625 5.390625 -11.390625 C 6.109375 -11.390625 6.804688 -11.300781 7.484375 -11.125 C 8.171875 -10.957031 8.769531 -10.71875 9.28125 -10.40625 L 8.484375 -8.4375 C 7.441406 -9.019531 6.40625 -9.3125 5.375 -9.3125 C 4.644531 -9.3125 4.109375 -9.191406 3.765625 -8.953125 C 3.421875 -8.722656 3.25 -8.414062 3.25 -8.03125 C 3.25 -7.644531 3.445312 -7.359375 3.84375 -7.171875 C 4.25 -6.984375 4.863281 -6.800781 5.6875 -6.625 C 6.53125 -6.414062 7.222656 -6.210938 7.765625 -6.015625 C 8.316406 -5.816406 8.785156 -5.5 9.171875 -5.0625 C 9.566406 -4.625 9.765625 -4.03125 9.765625 -3.28125 C 9.765625 -2.632812 9.582031 -2.046875 9.21875 -1.515625 C 8.863281 -0.992188 8.328125 -0.578125 7.609375 -0.265625 C 6.898438 0.0351562 6.035156 0.1875 5.015625 0.1875 Z M 5.015625 0.1875 "/></g></g></g><g fill="#ffffff" fill-opacity="1"><g transform="translate(347.849628, 294.585207)"><g><path d="M 5.40625 -4.40625 L 3.90625 -2.828125 L 3.90625 0 L 1.328125 0 L 1.328125 -11.203125 L 3.90625 -11.203125 L 3.90625 -5.96875 L 8.859375 -11.203125 L 11.75 -11.203125 L 7.109375 -6.203125 L 12.015625 0 L 8.984375 0 Z M 5.40625 -4.40625 "/></g></g></g><g fill="#ffffff" fill-opacity="1"><g transform="translate(368.234584, 294.585207)"><g><path d="M 1.328125 -11.203125 L 3.921875 -11.203125 L 3.921875 0 L 1.328125 0 Z M 1.328125 -11.203125 "/></g></g></g></svg>